<?xml version="1.0" encoding="UTF-8"?>
<svg width="30px" height="30px" viewBox="0 0 30 30" version="1.1" xmlns="http://www.w3.org/2000/svg" xmlns:xlink="http://www.w3.org/1999/xlink">
    <!-- Generator: Sketch 56.3 (81716) - https://sketch.com -->
    <title>Artboard</title>
    <desc>Created with Sketch.</desc>
    <defs>
        <linearGradient x1="82.8573379%" y1="47.3697068%" x2="19.6193995%" y2="64.1281839%" id="linearGradient-1">
            <stop stop-color="#D6202A" offset="0%"></stop>
            <stop stop-color="#FFADAD" offset="100%"></stop>
        </linearGradient>
        <linearGradient x1="78.8972304%" y1="35.7528399%" x2="4.88284533%" y2="54.0995542%" id="linearGradient-2">
            <stop stop-color="#D6202A" offset="0%"></stop>
            <stop stop-color="#F48689" offset="100%"></stop>
        </linearGradient>
        <radialGradient cx="0%" cy="15.7310124%" fx="0%" fy="15.7310124%" r="107.588336%" id="radialGradient-3">
            <stop stop-color="#E26C6C" stop-opacity="0.991286058" offset="0%"></stop>
            <stop stop-color="#F5F5F5" offset="100%"></stop>
        </radialGradient>
    </defs>
    <g id="Artboard" stroke="none" stroke-width="1" fill="none" fill-rule="evenodd">
        <g id="Group" transform="translate(15.213203, 15.213203) rotate(-315.000000) translate(-15.213203, -15.213203) translate(0.213203, 0.213203)">
            <path d="M16.2681653,24.5028171 C21.3165577,24.5028171 25.1088587,20.2263492 25.1088587,15.1779568 C25.1088587,10.1295644 21.4084233,5.42736604 16.3600309,5.42736604 C11.3116384,5.42736604 15.1607087,9.27643628 15.1925216,14.8074784 C14.5792211,19.329822 14.937769,22.5616016 16.2681653,24.5028171 Z" id="Oval" fill="#D6202A"></path>
            <path d="M16.8171801,24.7041557 C22.2723934,23.549767 25,20.3150484 25,15 L9.17425084,21.6030357 C8.6645522,21.8156991 8.07896203,21.5749045 7.86629859,21.0652059 C7.7579764,20.8055859 7.76401624,20.5123479 7.88293682,20.2574085 L15,5 C9.684965,5 6.45024934,7.72759288 5.29585303,13.1827786 C5.18149994,13.7231021 5.52682921,14.2538145 6.06715529,14.3681553 C6.26471818,14.4099625 6.47030956,14.3909778 6.6568759,14.3136995 L22.0710678,7.92893219 L15.6862805,23.3431723 C15.474971,23.8534123 15.7172641,24.4383594 16.2274904,24.6497021 C16.4140469,24.7269763 16.6196275,24.7459602 16.8171801,24.7041557 Z" id="Oval" fill="#D6202A" transform="translate(15.000000, 15.000000) rotate(-315.000000) translate(-15.000000, -15.000000) "></path>
            <path d="M14.1804683,8.07925881 L20.5783179,7.40487565 L23.6958082,15.4048757 C20.657806,13.691426 18.3367777,12.3873062 16.7327231,11.4925164 C15.882153,11.0180429 14.9167917,10.50968 13.8366392,9.96742786 C13.3430849,9.71962576 13.1438335,9.1186476 13.3916111,8.62508102 C13.5444361,8.3206574 13.8417144,8.11496611 14.1804683,8.07925881 Z" id="Rectangle" fill="url(#linearGradient-1)" transform="translate(17.195808, 11.404876) rotate(-15.000000) translate(-17.195808, -11.404876) "></path>
            <path d="M13.8605777,15.2112339 L20.7640232,14.5355339 L24.1213203,22.5355339 C20.8496257,20.8220842 18.3500567,19.5179645 16.6226134,18.6231747 C15.7148809,18.1529828 14.6857482,17.6495106 13.5352152,17.1127579 C13.0346727,16.8792951 12.8182135,16.2842474 13.0517198,15.7837251 C13.2011899,15.4633349 13.5087181,15.2456734 13.8605777,15.2112339 Z" id="Rectangle" fill="url(#linearGradient-2)" transform="translate(17.121320, 18.535534) scale(1, -1) rotate(345.000000) translate(-17.121320, -18.535534) "></path>
            <circle id="Oval" fill="url(#radialGradient-3)" cx="16.767767" cy="15" r="2.25"></circle>
        </g>
    </g>
</svg>